# xmcd
#
# Track frame offsets:
#	150
#	5861
#	32402
#	51946
#	85487
#	128910
#	180724
#	208391
#	237743
#	260646
#
# Disc length: 3840
#
# Revision: 1
# Processed by: cddbd v1.5.1PL0 Copyright (c) Steve Scherf et al.
# Submitted via: Audion 3.0.2 (http://www.panic.com/audion/)
# Normalized: r0:TRMNUM
#
DISCID=970efe0a
DTITLE=Allman Brothers Band - ABB 2002.11.08 - Hartford CT
DYEAR=1900
DGENRE=
TTITLE0=Crowd_Tuning.mp3
TTITLE1=End Of The Line.mp3
TTITLE2=Trouble No more.mp3
TTITLE3=Black Hearted Woman.mp3
TTITLE4=Rockin'  Horse.mp3
TTITLE5=Desdemona.mp3
TTITLE6=Leave My Blues At Home.mp3
TTITLE7=Good Clean Fun.mp3
TTITLE8=Been Loving You Too Long.mp3
TTITLE9=Statesboro Blues.mp3
EXTD=
EXTT0=
EXTT1=
EXTT2=
EXTT3=
EXTT4=
EXTT5=
EXTT6=
EXTT7=
EXTT8=
EXTT9=
PLAYORDER=
